<?xml version="1.0" encoding="utf-8"?>
<!-- Svg Vector Icons : http://www.onlinewebfonts.com/icon -->
<!DOCTYPE svg PUBLIC "-//W3C//DTD SVG 1.1//EN" "http://www.w3.org/Graphics/SVG/1.1/DTD/svg11.dtd">
<svg version="1.1" xmlns="http://www.w3.org/2000/svg" xmlns:xlink="http://www.w3.org/1999/xlink" x="0px" y="0px" viewBox="0 0 1000 1000" enable-background="new 0 0 1000 1000" xml:space="preserve">
<metadata> Svg Vector Icons : http://www.onlinewebfonts.com/icon </metadata>
<g><g transform="translate(0.000000,511.000000) scale(0.100000,-0.100000)"><path fill="#fff" d="M4398,4982.1C2339.4,4720.5,663.1,3201.5,213.4,1187.9C49.9,458.1,64.2-404.5,250.2-1120c302.6-1161.1,1034.4-2185.3,2034.1-2851.8C3797-4977.6,5777.9-5059.4,7366.3-4180.3c1189.8,658.3,2070.8,1803.1,2389.8,3103.2c410.9,1676.3-71.5,3428.2-1275.6,4640.5c-744.1,748.2-1631.3,1206.1-2688.2,1390.1C5469.2,5010.7,4735.3,5025,4398,4982.1z M5534.6,4000.9c1304.3-186,2408.2-987.4,2988.7-2166.9c674.6-1373.8,474.3-3048-504.9-4223.5C6291-4464.5,3046.8-4223.3,1638.3-1913.2c-372.1,611.2-558.1,1287.9-558.1,2034c0,1476,811.6,2802.7,2126,3479.3c404.8,208.5,785,331.2,1236.8,398.6C4692.4,4037.7,5268.9,4037.7,5534.6,4000.9z"/><path d="M3472,45.2v-1962.5h490.6h490.6V45.2v1962.5h-490.6H3472V45.2z" fill="#fff"/><path fill="#fff" d="M5516.3,45.2v-1962.5h490.6h490.6V45.2v1962.5h-490.6h-490.6V45.2z"/></g></g>
</svg>